# xmcd CD database file
#
# Track frame offsets:
#	225
#	14686
#	28022
#	42394
#	57473
#	70237
#	82614
#	94733
#	109289
#	122405
#	133544
#	145442
#	157984
#	170878
#	183397
#	199322
#	212957
#	228624
#	244064
#	258762
#	273925
#	287656
#	302782
#	317272
#	331180
#
# Disc length: 4621 seconds
#
# Revision: 0
# Processed by: cddbd v1.5.2PL0 Copyright (c) Steve Scherf et al.
# Submitted via: CDex 1.70beta2
#
DISCID=6d120a19
DTITLE=Paul Whiteman - Volume 5 - Without a Song - Dutton Vocalion
DYEAR=1928
DGENRE=Jazz
TTITLE0=Get Out and Get Under the Moon (with Bing Crosby)
TTITLE1=Evening Star (with Bing Crosby)
TTITLE2=Last Night I Dreamed You Kissed Me
TTITLE3=Chiquita
TTITLE4='Tain't So, Honey, 'Tain't So (with Bing Crosby)
TTITLE5=In the Evening
TTITLE6=I'd Rather Cry Over You (with Bing Crosby)
TTITLE7=I'm On the Crest of a Wave (with Bing Crosby)
TTITLE8=Felix the Cat
TTITLE9=Georgie Porgie (with Bing Crosby, Al Rinker and Harry Barris aka The Rhythm Boys)
TTITLE10=Out o' Town Gal (with Bing Crosby, Al Rinker and Harry Barris aka The Rhythm Boys)
TTITLE11=Lonesome in the Moonlight (with Bing Crosby, Al Rinker and Harry Barris aka The Rhythm Boys)
TTITLE12=How About Me?
TTITLE13=Just a Sweetheart
TTITLE14=Lover Come Back to Me
TTITLE15=Marianne
TTITLE16=Blue Hawaii
TTITLE17=Louise (with Bing Crosby)
TTITLE18=I'm in the Seventh Heaven (with Bing Crosby, Al Rinker and Harry Barris aka The Rhythm Boys)
TTITLE19=Reaching for Someone (and Not Finding Anyone There) (with Bing Crosby)
TTITLE20=When My Dreams Come True
TTITLE21=Laughing Marionette
TTITLE22=S'posin' (with Bing Crosby)
TTITLE23=At Twilight (with Bing Crosby)
TTITLE24=Without a Song (with Bing Crosby)
EXTD=YEAR: 1928
EXTT0=
EXTT1=
EXTT2=
EXTT3=
EXTT4=
EXTT5=
EXTT6=
EXTT7=
EXTT8=
EXTT9=
EXTT10=
EXTT11=
EXTT12=
EXTT13=
EXTT14=
EXTT15=
EXTT16=
EXTT17=
EXTT18=
EXTT19=
EXTT20=
EXTT21=
EXTT22=
EXTT23=
EXTT24=
PLAYORDER=
